<mxfile host="app.diagrams.net" modified="2023-11-30T00:40:50.043Z" agent="Mozilla/5.0 (Windows NT 10.0; Win64; x64) AppleWebKit/537.36 (KHTML, like Gecko) Chrome/119.0.0.0 Safari/537.36" etag="uP5oY5FzK0Zq2SzZk64T" version="22.1.5" type="device">
  <diagram name="Page-1" id="2YBvvXClWsGukQMizWep">
    <mxGraphModel dx="1900" dy="534" grid="1" gridSize="10" guides="1" tooltips="1" connect="1" arrows="1" fold="1" page="1" pageScale="1" pageWidth="850" pageHeight="1100" math="0" shadow="0">
      <root>
        <mxCell id="0" />
        <mxCell id="1" parent="0" />
        <mxCell id="aM9ryv3xv72pqoxQDRHE-5" value="Load Balancer" style="shape=umlLifeline;perimeter=lifelinePerimeter;whiteSpace=wrap;html=1;container=0;dropTarget=0;collapsible=0;recursiveResize=0;outlineConnect=0;portConstraint=eastwest;newEdgeStyle={&quot;edgeStyle&quot;:&quot;elbowEdgeStyle&quot;,&quot;elbow&quot;:&quot;vertical&quot;,&quot;curved&quot;:0,&quot;rounded&quot;:0};fillColor=#fff2cc;strokeColor=#d6b656;" parent="1" vertex="1">
          <mxGeometry x="-10" y="40" width="100" height="590" as="geometry" />
        </mxCell>
        <mxCell id="aM9ryv3xv72pqoxQDRHE-6" value="" style="html=1;points=[];perimeter=orthogonalPerimeter;outlineConnect=0;targetShapes=umlLifeline;portConstraint=eastwest;newEdgeStyle={&quot;edgeStyle&quot;:&quot;elbowEdgeStyle&quot;,&quot;elbow&quot;:&quot;vertical&quot;,&quot;curved&quot;:0,&quot;rounded&quot;:0};fillColor=#f8cecc;strokeColor=#b85450;" parent="aM9ryv3xv72pqoxQDRHE-5" vertex="1">
          <mxGeometry x="45" y="80" width="10" height="430" as="geometry" />
        </mxCell>
        <mxCell id="RIE89Zht3C5cNFrjnq7H-1" value="Streaming Service" style="shape=umlLifeline;perimeter=lifelinePerimeter;whiteSpace=wrap;html=1;container=0;dropTarget=0;collapsible=0;recursiveResize=0;outlineConnect=0;portConstraint=eastwest;newEdgeStyle={&quot;edgeStyle&quot;:&quot;elbowEdgeStyle&quot;,&quot;elbow&quot;:&quot;vertical&quot;,&quot;curved&quot;:0,&quot;rounded&quot;:0};fillColor=#fff2cc;strokeColor=#d6b656;" parent="1" vertex="1">
          <mxGeometry x="340" y="40" width="100" height="590" as="geometry" />
        </mxCell>
        <mxCell id="RIE89Zht3C5cNFrjnq7H-2" value="" style="html=1;points=[];perimeter=orthogonalPerimeter;outlineConnect=0;targetShapes=umlLifeline;portConstraint=eastwest;newEdgeStyle={&quot;edgeStyle&quot;:&quot;elbowEdgeStyle&quot;,&quot;elbow&quot;:&quot;vertical&quot;,&quot;curved&quot;:0,&quot;rounded&quot;:0};fillColor=#f8cecc;strokeColor=#b85450;" parent="RIE89Zht3C5cNFrjnq7H-1" vertex="1">
          <mxGeometry x="45" y="80" width="10" height="430" as="geometry" />
        </mxCell>
        <mxCell id="RIE89Zht3C5cNFrjnq7H-3" value="Device Check" style="shape=umlLifeline;perimeter=lifelinePerimeter;whiteSpace=wrap;html=1;container=0;dropTarget=0;collapsible=0;recursiveResize=0;outlineConnect=0;portConstraint=eastwest;newEdgeStyle={&quot;edgeStyle&quot;:&quot;elbowEdgeStyle&quot;,&quot;elbow&quot;:&quot;vertical&quot;,&quot;curved&quot;:0,&quot;rounded&quot;:0};fillColor=#fff2cc;strokeColor=#d6b656;" parent="1" vertex="1">
          <mxGeometry x="540" y="40" width="100" height="590" as="geometry" />
        </mxCell>
        <mxCell id="RIE89Zht3C5cNFrjnq7H-4" value="" style="html=1;points=[];perimeter=orthogonalPerimeter;outlineConnect=0;targetShapes=umlLifeline;portConstraint=eastwest;newEdgeStyle={&quot;edgeStyle&quot;:&quot;elbowEdgeStyle&quot;,&quot;elbow&quot;:&quot;vertical&quot;,&quot;curved&quot;:0,&quot;rounded&quot;:0};fillColor=#f8cecc;strokeColor=#b85450;" parent="RIE89Zht3C5cNFrjnq7H-3" vertex="1">
          <mxGeometry x="45" y="80" width="10" height="430" as="geometry" />
        </mxCell>
        <mxCell id="RIE89Zht3C5cNFrjnq7H-5" value="Content Select" style="shape=umlLifeline;perimeter=lifelinePerimeter;whiteSpace=wrap;html=1;container=0;dropTarget=0;collapsible=0;recursiveResize=0;outlineConnect=0;portConstraint=eastwest;newEdgeStyle={&quot;edgeStyle&quot;:&quot;elbowEdgeStyle&quot;,&quot;elbow&quot;:&quot;vertical&quot;,&quot;curved&quot;:0,&quot;rounded&quot;:0};fillColor=#fff2cc;strokeColor=#d6b656;" parent="1" vertex="1">
          <mxGeometry x="880" y="40" width="100" height="590" as="geometry" />
        </mxCell>
        <mxCell id="RIE89Zht3C5cNFrjnq7H-6" value="" style="html=1;points=[];perimeter=orthogonalPerimeter;outlineConnect=0;targetShapes=umlLifeline;portConstraint=eastwest;newEdgeStyle={&quot;edgeStyle&quot;:&quot;elbowEdgeStyle&quot;,&quot;elbow&quot;:&quot;vertical&quot;,&quot;curved&quot;:0,&quot;rounded&quot;:0};fillColor=#f8cecc;strokeColor=#b85450;" parent="RIE89Zht3C5cNFrjnq7H-5" vertex="1">
          <mxGeometry x="45" y="80" width="10" height="430" as="geometry" />
        </mxCell>
        <mxCell id="RIE89Zht3C5cNFrjnq7H-8" value="select service" style="html=1;verticalAlign=bottom;endArrow=block;edgeStyle=elbowEdgeStyle;elbow=vertical;curved=0;rounded=0;" parent="1" edge="1" source="RIE89Zht3C5cNFrjnq7H-33">
          <mxGeometry x="-0.0971" y="10" relative="1" as="geometry">
            <mxPoint x="-240" y="390" as="sourcePoint" />
            <Array as="points">
              <mxPoint x="175" y="390" />
            </Array>
            <mxPoint x="380" y="390" as="targetPoint" />
            <mxPoint as="offset" />
          </mxGeometry>
        </mxCell>
        <mxCell id="RIE89Zht3C5cNFrjnq7H-9" value="Content Availability" style="shape=umlLifeline;perimeter=lifelinePerimeter;whiteSpace=wrap;html=1;container=0;dropTarget=0;collapsible=0;recursiveResize=0;outlineConnect=0;portConstraint=eastwest;newEdgeStyle={&quot;edgeStyle&quot;:&quot;elbowEdgeStyle&quot;,&quot;elbow&quot;:&quot;vertical&quot;,&quot;curved&quot;:0,&quot;rounded&quot;:0};fillColor=#fff2cc;strokeColor=#d6b656;" parent="1" vertex="1">
          <mxGeometry x="710" y="40" width="100" height="590" as="geometry" />
        </mxCell>
        <mxCell id="RIE89Zht3C5cNFrjnq7H-10" value="" style="html=1;points=[];perimeter=orthogonalPerimeter;outlineConnect=0;targetShapes=umlLifeline;portConstraint=eastwest;newEdgeStyle={&quot;edgeStyle&quot;:&quot;elbowEdgeStyle&quot;,&quot;elbow&quot;:&quot;vertical&quot;,&quot;curved&quot;:0,&quot;rounded&quot;:0};fillColor=#f8cecc;strokeColor=#b85450;" parent="RIE89Zht3C5cNFrjnq7H-9" vertex="1">
          <mxGeometry x="45" y="80" width="10" height="430" as="geometry" />
        </mxCell>
        <mxCell id="RIE89Zht3C5cNFrjnq7H-12" value="select content" style="html=1;verticalAlign=bottom;endArrow=block;edgeStyle=elbowEdgeStyle;elbow=vertical;curved=0;rounded=0;" parent="1" edge="1" target="RIE89Zht3C5cNFrjnq7H-5">
          <mxGeometry relative="1" as="geometry">
            <mxPoint x="-250" y="510" as="sourcePoint" />
            <Array as="points">
              <mxPoint x="-165" y="510" />
            </Array>
            <mxPoint x="579.5" y="510" as="targetPoint" />
          </mxGeometry>
        </mxCell>
        <mxCell id="RIE89Zht3C5cNFrjnq7H-17" value="Active" style="text;html=1;strokeColor=none;fillColor=none;align=center;verticalAlign=middle;whiteSpace=wrap;rounded=0;" parent="1" vertex="1">
          <mxGeometry x="-215" y="288" width="50" height="30" as="geometry" />
        </mxCell>
        <mxCell id="RIE89Zht3C5cNFrjnq7H-19" value="" style="endArrow=block;dashed=1;endFill=0;endSize=12;html=1;rounded=0;" parent="1" edge="1">
          <mxGeometry width="160" relative="1" as="geometry">
            <mxPoint x="-125" y="318" as="sourcePoint" />
            <mxPoint x="-255" y="318" as="targetPoint" />
          </mxGeometry>
        </mxCell>
        <mxCell id="RIE89Zht3C5cNFrjnq7H-20" value="" style="endArrow=block;dashed=1;endFill=0;endSize=12;html=1;rounded=0;" parent="1" edge="1">
          <mxGeometry width="160" relative="1" as="geometry">
            <mxPoint x="580" y="220" as="sourcePoint" />
            <mxPoint x="400" y="220" as="targetPoint" />
          </mxGeometry>
        </mxCell>
        <mxCell id="RIE89Zht3C5cNFrjnq7H-22" value="verify" style="edgeLabel;html=1;align=center;verticalAlign=middle;resizable=0;points=[];" parent="RIE89Zht3C5cNFrjnq7H-20" vertex="1" connectable="0">
          <mxGeometry x="-0.015" y="-9" relative="1" as="geometry">
            <mxPoint as="offset" />
          </mxGeometry>
        </mxCell>
        <mxCell id="RIE89Zht3C5cNFrjnq7H-23" value="sucess" style="text;html=1;align=center;verticalAlign=middle;resizable=0;points=[];autosize=1;strokeColor=none;fillColor=none;" parent="1" vertex="1">
          <mxGeometry x="475" y="260" width="60" height="30" as="geometry" />
        </mxCell>
        <mxCell id="RIE89Zht3C5cNFrjnq7H-24" value="" style="endArrow=block;dashed=1;endFill=0;endSize=12;html=1;rounded=0;" parent="1" source="RIE89Zht3C5cNFrjnq7H-3" edge="1">
          <mxGeometry width="160" relative="1" as="geometry">
            <mxPoint x="440" y="290" as="sourcePoint" />
            <mxPoint x="400" y="370" as="targetPoint" />
            <Array as="points">
              <mxPoint x="520" y="370" />
            </Array>
          </mxGeometry>
        </mxCell>
        <mxCell id="RIE89Zht3C5cNFrjnq7H-25" value="stream content" style="text;html=1;align=center;verticalAlign=middle;resizable=0;points=[];autosize=1;strokeColor=none;fillColor=none;" parent="1" vertex="1">
          <mxGeometry x="460" y="338" width="100" height="30" as="geometry" />
        </mxCell>
        <mxCell id="RIE89Zht3C5cNFrjnq7H-26" value="" style="html=1;verticalAlign=bottom;endArrow=block;edgeStyle=elbowEdgeStyle;elbow=vertical;curved=0;rounded=0;" parent="1" edge="1">
          <mxGeometry relative="1" as="geometry">
            <mxPoint x="400" y="290" as="sourcePoint" />
            <Array as="points">
              <mxPoint x="522.5" y="290" />
            </Array>
            <mxPoint x="577.5" y="290" as="targetPoint" />
          </mxGeometry>
        </mxCell>
        <mxCell id="RIE89Zht3C5cNFrjnq7H-27" value="" style="endArrow=block;dashed=1;endFill=0;endSize=12;html=1;rounded=0;" parent="1" edge="1">
          <mxGeometry width="160" relative="1" as="geometry">
            <mxPoint x="750" y="239" as="sourcePoint" />
            <mxPoint x="600" y="239" as="targetPoint" />
          </mxGeometry>
        </mxCell>
        <mxCell id="RIE89Zht3C5cNFrjnq7H-28" value="check compatibility" style="edgeLabel;html=1;align=center;verticalAlign=middle;resizable=0;points=[];" parent="RIE89Zht3C5cNFrjnq7H-27" vertex="1" connectable="0">
          <mxGeometry x="-0.015" y="-9" relative="1" as="geometry">
            <mxPoint as="offset" />
          </mxGeometry>
        </mxCell>
        <mxCell id="RIE89Zht3C5cNFrjnq7H-29" value="" style="html=1;verticalAlign=bottom;endArrow=block;edgeStyle=elbowEdgeStyle;elbow=vertical;curved=0;rounded=0;" parent="1" target="RIE89Zht3C5cNFrjnq7H-6" edge="1">
          <mxGeometry relative="1" as="geometry">
            <mxPoint x="770" y="260" as="sourcePoint" />
            <Array as="points">
              <mxPoint x="860" y="260" />
            </Array>
            <mxPoint x="915" y="260" as="targetPoint" />
          </mxGeometry>
        </mxCell>
        <mxCell id="RIE89Zht3C5cNFrjnq7H-38" value="content details" style="edgeLabel;html=1;align=center;verticalAlign=middle;resizable=0;points=[];" parent="RIE89Zht3C5cNFrjnq7H-29" vertex="1" connectable="0">
          <mxGeometry x="-0.071" y="8" relative="1" as="geometry">
            <mxPoint as="offset" />
          </mxGeometry>
        </mxCell>
        <mxCell id="RIE89Zht3C5cNFrjnq7H-30" value="search content" style="text;html=1;align=center;verticalAlign=middle;resizable=0;points=[];autosize=1;strokeColor=none;fillColor=none;" parent="1" vertex="1">
          <mxGeometry x="610" y="300" width="100" height="30" as="geometry" />
        </mxCell>
        <mxCell id="RIE89Zht3C5cNFrjnq7H-33" value="" style="html=1;points=[];perimeter=orthogonalPerimeter;outlineConnect=0;targetShapes=umlLifeline;portConstraint=eastwest;newEdgeStyle={&quot;edgeStyle&quot;:&quot;elbowEdgeStyle&quot;,&quot;elbow&quot;:&quot;vertical&quot;,&quot;curved&quot;:0,&quot;rounded&quot;:0};fillColor=#f8cecc;strokeColor=#b85450;" parent="1" vertex="1">
          <mxGeometry x="-260" y="120" width="10" height="430" as="geometry" />
        </mxCell>
        <mxCell id="RIE89Zht3C5cNFrjnq7H-34" value="User" style="shape=umlActor;verticalLabelPosition=bottom;verticalAlign=top;html=1;fillColor=#d5e8d4;strokeColor=#82b366;" parent="1" vertex="1">
          <mxGeometry x="-270" y="20" width="30" height="50" as="geometry" />
        </mxCell>
        <mxCell id="RIE89Zht3C5cNFrjnq7H-35" value="" style="endArrow=none;dashed=1;html=1;rounded=0;" parent="1" edge="1">
          <mxGeometry width="50" height="50" relative="1" as="geometry">
            <mxPoint x="-255.5" y="110" as="sourcePoint" />
            <mxPoint x="-255.5" y="80" as="targetPoint" />
          </mxGeometry>
        </mxCell>
        <mxCell id="RIE89Zht3C5cNFrjnq7H-36" value="start" style="html=1;verticalAlign=bottom;startArrow=oval;endArrow=block;startSize=8;edgeStyle=elbowEdgeStyle;elbow=vertical;curved=0;rounded=0;" parent="1" edge="1">
          <mxGeometry y="10" relative="1" as="geometry">
            <mxPoint x="-340" y="100" as="sourcePoint" />
            <mxPoint x="-280" y="100" as="targetPoint" />
            <mxPoint as="offset" />
          </mxGeometry>
        </mxCell>
        <mxCell id="RIE89Zht3C5cNFrjnq7H-37" value="" style="html=1;verticalAlign=bottom;endArrow=block;edgeStyle=elbowEdgeStyle;elbow=vertical;curved=0;rounded=0;" parent="1" edge="1" source="RIE89Zht3C5cNFrjnq7H-4">
          <mxGeometry relative="1" as="geometry">
            <mxPoint x="610" y="330" as="sourcePoint" />
            <Array as="points">
              <mxPoint x="700" y="330" />
            </Array>
            <mxPoint x="755" y="330" as="targetPoint" />
          </mxGeometry>
        </mxCell>
        <mxCell id="jrfDvZE4e3FpF4jLbaiO-3" value="Request" style="html=1;verticalAlign=bottom;endArrow=block;edgeStyle=elbowEdgeStyle;elbow=vertical;curved=0;rounded=0;" edge="1" parent="1">
          <mxGeometry relative="1" as="geometry">
            <mxPoint x="-250" y="210" as="sourcePoint" />
            <Array as="points">
              <mxPoint x="-165" y="210" />
            </Array>
            <mxPoint x="-130" y="210" as="targetPoint" />
          </mxGeometry>
        </mxCell>
        <mxCell id="jrfDvZE4e3FpF4jLbaiO-6" value="" style="html=1;verticalAlign=bottom;endArrow=block;edgeStyle=elbowEdgeStyle;elbow=vertical;curved=0;rounded=0;" edge="1" parent="1">
          <mxGeometry relative="1" as="geometry">
            <mxPoint x="-250" y="150" as="sourcePoint" />
            <Array as="points">
              <mxPoint x="-165" y="150" />
            </Array>
            <mxPoint x="-130" y="150" as="targetPoint" />
          </mxGeometry>
        </mxCell>
        <mxCell id="jrfDvZE4e3FpF4jLbaiO-1" value="Registration" style="shape=umlLifeline;perimeter=lifelinePerimeter;whiteSpace=wrap;html=1;container=0;dropTarget=0;collapsible=0;recursiveResize=0;outlineConnect=0;portConstraint=eastwest;newEdgeStyle={&quot;edgeStyle&quot;:&quot;elbowEdgeStyle&quot;,&quot;elbow&quot;:&quot;vertical&quot;,&quot;curved&quot;:0,&quot;rounded&quot;:0};fillColor=#fff2cc;strokeColor=#d6b656;" vertex="1" parent="1">
          <mxGeometry x="-165" y="40" width="100" height="600" as="geometry" />
        </mxCell>
        <mxCell id="jrfDvZE4e3FpF4jLbaiO-2" value="" style="html=1;points=[];perimeter=orthogonalPerimeter;outlineConnect=0;targetShapes=umlLifeline;portConstraint=eastwest;newEdgeStyle={&quot;edgeStyle&quot;:&quot;elbowEdgeStyle&quot;,&quot;elbow&quot;:&quot;vertical&quot;,&quot;curved&quot;:0,&quot;rounded&quot;:0};fillColor=#f8cecc;strokeColor=#b85450;" vertex="1" parent="jrfDvZE4e3FpF4jLbaiO-1">
          <mxGeometry x="45" y="80" width="10" height="430" as="geometry" />
        </mxCell>
        <mxCell id="jrfDvZE4e3FpF4jLbaiO-7" value="New User" style="text;html=1;align=center;verticalAlign=middle;resizable=0;points=[];autosize=1;strokeColor=none;fillColor=none;" vertex="1" parent="1">
          <mxGeometry x="-230" y="118" width="80" height="30" as="geometry" />
        </mxCell>
        <mxCell id="jrfDvZE4e3FpF4jLbaiO-8" value="Server" style="shape=umlLifeline;perimeter=lifelinePerimeter;whiteSpace=wrap;html=1;container=0;dropTarget=0;collapsible=0;recursiveResize=0;outlineConnect=0;portConstraint=eastwest;newEdgeStyle={&quot;edgeStyle&quot;:&quot;elbowEdgeStyle&quot;,&quot;elbow&quot;:&quot;vertical&quot;,&quot;curved&quot;:0,&quot;rounded&quot;:0};fillColor=#fff2cc;strokeColor=#d6b656;" vertex="1" parent="1">
          <mxGeometry x="160" y="40" width="100" height="590" as="geometry" />
        </mxCell>
        <mxCell id="jrfDvZE4e3FpF4jLbaiO-9" value="" style="html=1;points=[];perimeter=orthogonalPerimeter;outlineConnect=0;targetShapes=umlLifeline;portConstraint=eastwest;newEdgeStyle={&quot;edgeStyle&quot;:&quot;elbowEdgeStyle&quot;,&quot;elbow&quot;:&quot;vertical&quot;,&quot;curved&quot;:0,&quot;rounded&quot;:0};fillColor=#f8cecc;strokeColor=#b85450;" vertex="1" parent="jrfDvZE4e3FpF4jLbaiO-8">
          <mxGeometry x="45" y="80" width="10" height="430" as="geometry" />
        </mxCell>
        <mxCell id="jrfDvZE4e3FpF4jLbaiO-10" value="" style="endArrow=classic;html=1;rounded=0;" edge="1" parent="1">
          <mxGeometry width="50" height="50" relative="1" as="geometry">
            <mxPoint x="-250" y="259" as="sourcePoint" />
            <mxPoint x="39.5" y="259" as="targetPoint" />
          </mxGeometry>
        </mxCell>
        <mxCell id="jrfDvZE4e3FpF4jLbaiO-11" value="Distribute" style="text;html=1;align=center;verticalAlign=middle;resizable=0;points=[];autosize=1;strokeColor=none;fillColor=none;" vertex="1" parent="1">
          <mxGeometry x="-110" y="230" width="70" height="30" as="geometry" />
        </mxCell>
        <mxCell id="jrfDvZE4e3FpF4jLbaiO-12" value="" style="endArrow=classic;html=1;rounded=0;" edge="1" parent="1" target="jrfDvZE4e3FpF4jLbaiO-8">
          <mxGeometry width="50" height="50" relative="1" as="geometry">
            <mxPoint x="50" y="160" as="sourcePoint" />
            <mxPoint x="140.5" y="160" as="targetPoint" />
          </mxGeometry>
        </mxCell>
        <mxCell id="jrfDvZE4e3FpF4jLbaiO-13" value="Process Request" style="text;html=1;align=center;verticalAlign=middle;resizable=0;points=[];autosize=1;strokeColor=none;fillColor=none;" vertex="1" parent="1">
          <mxGeometry x="75" y="128" width="110" height="30" as="geometry" />
        </mxCell>
        <mxCell id="jrfDvZE4e3FpF4jLbaiO-14" value="" style="endArrow=classic;html=1;rounded=0;" edge="1" parent="1">
          <mxGeometry width="50" height="50" relative="1" as="geometry">
            <mxPoint x="200" y="317" as="sourcePoint" />
            <mxPoint x="40" y="317" as="targetPoint" />
          </mxGeometry>
        </mxCell>
        <mxCell id="jrfDvZE4e3FpF4jLbaiO-15" value="send response" style="text;html=1;align=center;verticalAlign=middle;resizable=0;points=[];autosize=1;strokeColor=none;fillColor=none;" vertex="1" parent="1">
          <mxGeometry x="65" y="282.5" width="100" height="30" as="geometry" />
        </mxCell>
        <mxCell id="jrfDvZE4e3FpF4jLbaiO-17" value="" style="endArrow=classic;html=1;rounded=0;" edge="1" parent="1">
          <mxGeometry width="50" height="50" relative="1" as="geometry">
            <mxPoint x="30" y="450" as="sourcePoint" />
            <mxPoint x="-250" y="450" as="targetPoint" />
          </mxGeometry>
        </mxCell>
        <mxCell id="jrfDvZE4e3FpF4jLbaiO-18" value="Receive" style="text;html=1;align=center;verticalAlign=middle;resizable=0;points=[];autosize=1;strokeColor=none;fillColor=none;" vertex="1" parent="1">
          <mxGeometry x="-125" y="418" width="70" height="30" as="geometry" />
        </mxCell>
        <mxCell id="jrfDvZE4e3FpF4jLbaiO-23" value="" style="endArrow=classic;html=1;rounded=0;" edge="1" parent="1">
          <mxGeometry width="50" height="50" relative="1" as="geometry">
            <mxPoint x="220" y="259" as="sourcePoint" />
            <mxPoint x="380" y="259" as="targetPoint" />
          </mxGeometry>
        </mxCell>
        <mxCell id="jrfDvZE4e3FpF4jLbaiO-24" value="sending data" style="text;html=1;align=center;verticalAlign=middle;resizable=0;points=[];autosize=1;strokeColor=none;fillColor=none;" vertex="1" parent="1">
          <mxGeometry x="255" y="228" width="90" height="30" as="geometry" />
        </mxCell>
      </root>
    </mxGraphModel>
  </diagram>
</mxfile>
